<!DOCTYPE svg PUBLIC "-//W3C//DTD SVG 1.1//EN" "http://www.w3.org/Graphics/SVG/1.1/DTD/svg11.dtd">
<!-- Uploaded to: SVG Repo, www.svgrepo.com, Transformed by: SVG Repo Mixer Tools -->
<svg width="256px" height="256px" viewBox="-3.6 -3.6 31.20 31.20" xmlns:rdf="http://www.w3.org/1999/02/22-rdf-syntax-ns#" xmlns="http://www.w3.org/2000/svg" version="1.1" xmlns:cc="http://creativecommons.org/ns#" xmlns:dc="http://purl.org/dc/elements/1.1/" fill="#000000" transform="matrix(1, 0, 0, 1, 0, 0)rotate(0)">
<g id="SVGRepo_bgCarrier" stroke-width="0">
<rect x="-3.6" y="-3.6" width="31.20" height="31.20" rx="15.6" fill="#c1fddb" strokewidth="0"/>
</g>
<g id="SVGRepo_tracerCarrier" stroke-linecap="round" stroke-linejoin="round" stroke="#CCCCCC" stroke-width="0.384"> <g transform="translate(0 -1028.4)"> <path d="m5 1030.4c-1.1046 0-2 0.9-2 2v8 4 6c0 1.1 0.8954 2 2 2h14c1.105 0 2-0.9 2-2v-6-4-4-4c0-1.1-0.895-2-2-2h-4-10z" fill="#bec2c7"/> <g fill="#6f858c"> <path d="m6 1028.4c-0.5523 0-1 0.4-1 1v3c0 0.5 0.4477 1 1 1s1-0.5 1-1v-3c0-0.6-0.4477-1-1-1zm4 0c-0.5523 0-1 0.4-1 1v3c0 0.5 0.4477 1 1 1 0.552 0 1-0.5 1-1v-3c0-0.6-0.448-1-1-1zm4 0c-0.552 0-1 0.4-1 1v3c0 0.5 0.448 1 1 1s1-0.5 1-1v-3c0-0.6-0.448-1-1-1zm4 0c-0.552 0-1 0.4-1 1v3c0 0.5 0.448 1 1 1s1-0.5 1-1v-3c0-0.6-0.448-1-1-1z"/> <rect height="1" width="12" y="1043.4" x="6"/> <rect height="1" width="12" y="1040.4" x="6"/> <rect height="1" width="12" y="1037.4" x="6"/> <rect transform="translate(0 1028.4)" height="1" width="4" y="18" x="6"/> </g> <path d="m5 1032.4c0 0.5 0.4477 1 1 1s1-0.5 1-1h-2zm4 0c0 0.5 0.4477 1 1 1 0.552 0 1-0.5 1-1h-2zm4 0c0 0.5 0.448 1 1 1s1-0.5 1-1h-2zm4 0c0 0.5 0.448 1 1 1s1-0.5 1-1h-2z" fill="#6f858c"/> <path d="m3 1049.4v1c0 1.1 0.8954 2 2 2h14c1.105 0 2-0.9 2-2v-1c0 1.1-0.895 2-2 2h-14c-1.1046 0-2-0.9-2-2z" fill="#6f858c"/> <g transform="matrix(.70711 .70711 -.70711 .70711 773.22 370.4)"> <path d="m-63 1003.4v11.3 0.7 1l2 2 2-2v-1-0.7-11.3h-4z" fill="#ecf0f1"/> <path d="m-61 1003.4v15l2-2v-1-0.7-11.3h-2z" fill="#bec2c7"/> <rect height="11" width="4" y="1004.4" x="-63" fill="#0bc174"/> <path d="m-61 1000.4c-1.105 0-2 0.9-2 2v1h4v-1c0-1.1-0.895-2-2-2z" fill="#6f858c"/> <g transform="translate(-7,1)"> <path d="m-55.406 1016 1.406 1.4 1.406-1.4h-1.406-1.406z" fill="#2b3c4d"/> <path d="m-54 1016v1.4l1.406-1.4h-1.406z" fill="#2c3e50"/> </g> <path d="m-61 1000.4c-1.105 0-2 0.9-2 2v1h2v-3z" fill="#6f858c"/> <rect height="11" width="2" y="1004.4" x="-61" fill="#018f7d"/> </g> </g> </g>
<g id="SVGRepo_iconCarrier"> <g transform="translate(0 -1028.4)"> <path d="m5 1030.4c-1.1046 0-2 0.9-2 2v8 4 6c0 1.1 0.8954 2 2 2h14c1.105 0 2-0.9 2-2v-6-4-4-4c0-1.1-0.895-2-2-2h-4-10z" fill="#bec2c7"/> <g fill="#6f858c"> <path d="m6 1028.4c-0.5523 0-1 0.4-1 1v3c0 0.5 0.4477 1 1 1s1-0.5 1-1v-3c0-0.6-0.4477-1-1-1zm4 0c-0.5523 0-1 0.4-1 1v3c0 0.5 0.4477 1 1 1 0.552 0 1-0.5 1-1v-3c0-0.6-0.448-1-1-1zm4 0c-0.552 0-1 0.4-1 1v3c0 0.5 0.448 1 1 1s1-0.5 1-1v-3c0-0.6-0.448-1-1-1zm4 0c-0.552 0-1 0.4-1 1v3c0 0.5 0.448 1 1 1s1-0.5 1-1v-3c0-0.6-0.448-1-1-1z"/> <rect height="1" width="12" y="1043.4" x="6"/> <rect height="1" width="12" y="1040.4" x="6"/> <rect height="1" width="12" y="1037.4" x="6"/> <rect transform="translate(0 1028.4)" height="1" width="4" y="18" x="6"/> </g> <path d="m5 1032.4c0 0.5 0.4477 1 1 1s1-0.5 1-1h-2zm4 0c0 0.5 0.4477 1 1 1 0.552 0 1-0.5 1-1h-2zm4 0c0 0.5 0.448 1 1 1s1-0.5 1-1h-2zm4 0c0 0.5 0.448 1 1 1s1-0.5 1-1h-2z" fill="#6f858c"/> <path d="m3 1049.4v1c0 1.1 0.8954 2 2 2h14c1.105 0 2-0.9 2-2v-1c0 1.1-0.895 2-2 2h-14c-1.1046 0-2-0.9-2-2z" fill="#6f858c"/> <g transform="matrix(.70711 .70711 -.70711 .70711 773.22 370.4)"> <path d="m-63 1003.4v11.3 0.7 1l2 2 2-2v-1-0.7-11.3h-4z" fill="#ecf0f1"/> <path d="m-61 1003.4v15l2-2v-1-0.7-11.3h-2z" fill="#bec2c7"/> <rect height="11" width="4" y="1004.4" x="-63" fill="#0bc174"/> <path d="m-61 1000.4c-1.105 0-2 0.9-2 2v1h4v-1c0-1.1-0.895-2-2-2z" fill="#6f858c"/> <g transform="translate(-7,1)"> <path d="m-55.406 1016 1.406 1.4 1.406-1.4h-1.406-1.406z" fill="#2b3c4d"/> <path d="m-54 1016v1.4l1.406-1.4h-1.406z" fill="#2c3e50"/> </g> <path d="m-61 1000.4c-1.105 0-2 0.9-2 2v1h2v-3z" fill="#6f858c"/> <rect height="11" width="2" y="1004.4" x="-61" fill="#018f7d"/> </g> </g> </g>
</svg>